<?xml version="1.0" encoding="UTF-8" standalone="no"?>
<svg
   xmlns:dc="http://purl.org/dc/elements/1.1/"
   xmlns:cc="http://creativecommons.org/ns#"
   xmlns:rdf="http://www.w3.org/1999/02/22-rdf-syntax-ns#"
   xmlns:svg="http://www.w3.org/2000/svg"
   xmlns="http://www.w3.org/2000/svg"
   xmlns:sodipodi="http://sodipodi.sourceforge.net/DTD/sodipodi-0.dtd"
   xmlns:inkscape="http://www.inkscape.org/namespaces/inkscape"
   viewBox="0 0 15.647131 12.18058"
   version="1.1"
   id="svg61"
   sodipodi:docname="bars.svg"
   width="15.647131"
   height="12.18058"
   inkscape:version="0.92.1 r15371">
  <metadata
     id="metadata65">
    <rdf:RDF>
      <cc:Work
         rdf:about="">
        <dc:format>image/svg+xml</dc:format>
        <dc:type
           rdf:resource="http://purl.org/dc/dcmitype/StillImage" />
        <dc:title></dc:title>
      </cc:Work>
    </rdf:RDF>
  </metadata>
  <sodipodi:namedview
     pagecolor="#ffffff"
     bordercolor="#666666"
     borderopacity="1"
     objecttolerance="10"
     gridtolerance="10"
     guidetolerance="10"
     inkscape:pageopacity="0"
     inkscape:pageshadow="2"
     inkscape:window-width="1600"
     inkscape:window-height="831"
     id="namedview63"
     showgrid="false"
     fit-margin-top="0"
     fit-margin-left="0"
     fit-margin-right="0"
     fit-margin-bottom="0"
     inkscape:zoom="10.981492"
     inkscape:cx="12.431417"
     inkscape:cy="3.6698796"
     inkscape:window-x="0"
     inkscape:window-y="32"
     inkscape:window-maximized="1"
     inkscape:current-layer="g53" />
  <defs
     id="defs17">
    <linearGradient
       id="a"
       x1="248.2"
       x2="230.45"
       y1="312.07001"
       y2="331.67001"
       gradientTransform="matrix(1.2075,0,0,0.82817,-24.667,304.2)"
       gradientUnits="userSpaceOnUse">
      <stop
         stop-color="#ff2a26"
         offset="0"
         id="stop2" />
      <stop
         stop-color="#96000d"
         offset="1"
         id="stop4" />
    </linearGradient>
    <linearGradient
       id="b"
       x1="-53.428001"
       x2="-31.586"
       y1="109.79"
       y2="95.683998"
       gradientTransform="matrix(0.86707,0,0,0.59469,300.87,509.52)"
       gradientUnits="userSpaceOnUse">
      <stop
         stop-color="#83cb46"
         offset="0"
         id="stop7" />
      <stop
         stop-color="#fff"
         offset="1"
         id="stop9" />
    </linearGradient>
    <linearGradient
       id="c"
       x2="0"
       y1="234.55"
       y2="251.56"
       gradientUnits="userSpaceOnUse">
      <stop
         stop-color="#006f9d"
         offset="0"
         id="stop12" />
      <stop
         stop-color="#7bcefb"
         offset="1"
         id="stop14" />
    </linearGradient>
  </defs>
  <g
     transform="translate(-237.047,-555.007)"
     id="g59">
    <g
       transform="translate(-32.743,303.34)"
       id="g53">
      <g
         id="g4550"
         style="fill:#ffffff">
        <g
           style="fill:#ffffff"
           id="g25"
           transform="matrix(0.85135921,0,0,1,386.27297,180.76)">
          <path
             inkscape:connector-curvature="0"
             id="path21"
             d="m -135.82,70.907 h 16.379 a 1,1 0 0 1 1,1 v 0.45058 a 1,1 0 0 1 -1,1 h -16.379 a 1,1 0 0 1 -1,-1 V 71.907 a 1,1 0 0 1 1,-1"
             style="fill:#ffffff" />
        </g>
        <g
           style="fill:#ffffff"
           id="g31"
           transform="matrix(0.85135921,0,0,1,386.27297,185.63)">
          <path
             inkscape:connector-curvature="0"
             id="path27"
             d="m -135.82,70.907 h 16.379 a 1,1 0 0 1 1,1 v 0.45058 a 1,1 0 0 1 -1,1 h -16.379 a 1,1 0 0 1 -1,-1 V 71.907 a 1,1 0 0 1 1,-1"
             style="fill:#ffffff" />
        </g>
        <g
           style="fill:#ffffff"
           id="g37"
           transform="matrix(0.85135921,0,0,1,386.27297,190.49)">
          <path
             inkscape:connector-curvature="0"
             id="path33"
             d="m -135.82,70.907 h 16.379 a 1,1 0 0 1 1,1 v 0.45058 a 1,1 0 0 1 -1,1 h -16.379 a 1,1 0 0 1 -1,-1 V 71.907 a 1,1 0 0 1 1,-1"
             style="fill:#ffffff" />
        </g>
        <g
           style="fill:#ffffff"
           id="g51"
           transform="matrix(0.85135921,0,0,1,386.27297,185.63)">
          <path
             inkscape:connector-curvature="0"
             id="path47"
             d="m -135.82,70.907 h 16.379 a 1,1 0 0 1 1,1 v 0.45058 a 1,1 0 0 1 -1,1 h -16.379 a 1,1 0 0 1 -1,-1 V 71.907 a 1,1 0 0 1 1,-1"
             style="fill:#ffffff" />
        </g>
      </g>
    </g>
  </g>
</svg>
